<?xml version="1.0" encoding="utf-8"?>
<!-- Generator: Adobe Illustrator 17.1.0, SVG Export Plug-In . SVG Version: 6.00 Build 0)  -->
<!DOCTYPE svg PUBLIC "-//W3C//DTD SVG 1.1//EN" "http://www.w3.org/Graphics/SVG/1.1/DTD/svg11.dtd">
<svg version="1.1" id="Calque_1" xmlns="http://www.w3.org/2000/svg" xmlns:xlink="http://www.w3.org/1999/xlink" x="0px" y="0px"
	 viewBox="0 0 98.5 97.8" enable-background="new 0 0 98.5 97.8" xml:space="preserve">
<rect fill="#3D3D3D" width="98.5" height="98.5"/>
<g>
	<path d="M43.3,47.1c-1.5,1.4-2.8,2.6-4.2,3.7c-1,0.9-2.1,1-2.7,0.3c-0.6-0.7-0.4-2,0.5-2.8c2.1-2,4.3-4,6.5-5.9
		c0.6-0.5,1.5-0.8,2.2-0.8c1.5-0.1,3.1,0.1,4.7,0c1.6-0.2,2.6,0.6,3.5,1.6c1,1,2,1.8,3,2.8c1,1,2.1,2,3,3c0.6,0.7,0.6,1.5-0.1,2.1
		c-0.7,0.7-1.5,0.7-2.2,0c-1.4-1.2-2.8-2.4-4.4-3.8c0,1.2,0,2.4,0,3.6c-3.3,0-6.5,0-9.8,0C43.3,49.7,43.3,48.5,43.3,47.1z"/>
	<path d="M53.2,35.7c0,2.6-2.5,5-5.1,5c-3.1,0.1-5-2.9-5-5.1c0-2.9,2.4-5,5-5C50.5,30.6,53.3,32.6,53.2,35.7z"/>
	<path d="M49.6,56.3c1.3-1,2.6-2,3.8-2.9c0.9,0.7,1.7,1.3,2.4,2c1,0.9,1.2,2,0.6,3.1c-0.7,1.6-1.5,3.2-2.2,4.8
		c-0.7,1.5-1.9,2-3.3,1.4c-1.3-0.6-1.7-1.8-1.1-3.3c0.3-0.8,0.6-1.6,1-2.3c0.6-0.9,0.4-1.4-0.4-2C50.3,57,50,56.7,49.6,56.3z"/>
	<path d="M42.9,53.4c1.2,1,2.3,1.9,3.4,2.8c0,0.2,0,0.2-0.1,0.3c-1.6,1.6-1.6,1.6-0.7,3.7c0.2,0.5,0.5,1,0.7,1.5
		c0.5,1.3,0.1,2.5-1.1,3.1c-1,0.5-2.3,0.1-3-1c-0.5-0.9-0.9-1.9-1.3-2.9c-0.2-0.6-0.4-1.2-0.7-1.8c-0.9-1.8-0.7-3,0.9-4.3
		C41.6,54.3,42.2,53.9,42.9,53.4z"/>
</g>
</svg>
