<?xml version="1.0" encoding="utf-8"?>
<!-- Generator: Adobe Illustrator 17.1.0, SVG Export Plug-In . SVG Version: 6.00 Build 0)  -->
<!DOCTYPE svg PUBLIC "-//W3C//DTD SVG 1.1//EN" "http://www.w3.org/Graphics/SVG/1.1/DTD/svg11.dtd">
<svg version="1.1" id="Calque_1" xmlns="http://www.w3.org/2000/svg" xmlns:xlink="http://www.w3.org/1999/xlink" x="0px" y="0px"
	 viewBox="0 124 595.3 595.5" enable-background="new 0 124 595.3 595.5" xml:space="preserve">
<rect y="125.4" fill="#21ABC7" width="595.3" height="595.3"/>
<g>
	<path d="M274.7,410.1c-9.1,8.5-16.9,15.7-25.4,22.4c-6,5.4-12.7,6-16.3,1.8c-3.6-4.2-2.4-12.1,3-16.9c12.7-12.1,26-24.2,39.3-35.7
		c3.6-3,9.1-4.8,13.3-4.8c9.1-0.6,18.7,0.6,28.4,0c9.7-1.2,15.7,3.6,21.2,9.7c6,6,12.1,10.9,18.1,16.9c6,6,12.7,12.1,18.1,18.1
		c3.6,4.2,3.6,9.1-0.6,12.7c-4.2,4.2-9.1,4.2-13.3,0c-8.5-7.3-16.9-14.5-26.6-23c0,7.3,0,14.5,0,21.8c-19.9,0-39.3,0-59.2,0
		C274.7,425.8,274.7,418.5,274.7,410.1z"/>
	<path d="M334.5,341.2c0,15.7-15.1,30.2-30.8,30.2c-18.7,0.6-30.2-17.5-30.2-30.8c0-17.5,14.5-30.2,30.2-30.2
		C318.2,310.3,335.1,322.4,334.5,341.2z"/>
	<path d="M312.8,465.7c7.9-6,15.7-12.1,23-17.5c5.4,4.2,10.3,7.9,14.5,12.1c6,5.4,7.3,12.1,3.6,18.7c-4.2,9.7-9.1,19.3-13.3,29
		c-4.2,9.1-11.5,12.1-19.9,8.5c-7.9-3.6-10.3-10.9-6.6-19.9c1.8-4.8,3.6-9.7,6-13.9c3.6-5.4,2.4-8.5-2.4-12.1
		C317,469.9,315.2,468.1,312.8,465.7z"/>
	<path d="M272.3,448.1c7.3,6,13.9,11.5,20.5,16.9c0,1.2,0,1.2-0.6,1.8c-9.7,9.7-9.7,9.7-4.2,22.4c1.2,3,3,6,4.2,9.1
		c3,7.9,0.6,15.1-6.6,18.7c-6,3-13.9,0.6-18.1-6c-3-5.4-5.4-11.5-7.9-17.5c-1.2-3.6-2.4-7.3-4.2-10.9c-5.4-10.9-4.2-18.1,5.4-26
		C264.4,453.6,268,451.2,272.3,448.1z"/>
</g>
</svg>
