<?xml version="1.0" encoding="utf-8"?>
<!-- Generator: Adobe Illustrator 17.1.0, SVG Export Plug-In . SVG Version: 6.00 Build 0)  -->
<!DOCTYPE svg PUBLIC "-//W3C//DTD SVG 1.1//EN" "http://www.w3.org/Graphics/SVG/1.1/DTD/svg11.dtd">
<svg version="1.1" id="Calque_1" xmlns="http://www.w3.org/2000/svg" xmlns:xlink="http://www.w3.org/1999/xlink" x="0px" y="0px"
	 viewBox="0 0 98.5 97.8" enable-background="new 0 0 98.5 97.8" xml:space="preserve">
<rect fill="#3D3D3D" width="98.5" height="98.5"/>
<g>
	<path d="M60.6,44.7c-1.3,0.2-2.3,0.4-3.4,0.5c-0.6,0.1-1.3,0.2-1.2-1c-0.1,0.1-0.2,0.2-0.3,0.3c0,1.9,0,3.8,0,5.6
		c0,2.9,0.5,2.4-2.4,2.4c-3.3,0-6.6,0-9.8,0c-0.5,0-1.1,0-1.7,0c0-2.7,0-5.3,0-7.8c-1.6,1.2-3.1-0.2-4.8,0.1c0.5-4,2.4-6.9,5.7-8.6
		c1.6-0.8,2.3-0.6,3.5,0.8c1,1.1,3.4,1.2,4.7,0.2c2.1-1.7,2.7-1.7,5.1-0.2C58.8,38.7,59.7,41.6,60.6,44.7z"/>
	<path d="M55.6,53.9c0,0.4,0.1,0.7,0.1,1c0,5.7,0,11.3,0,17c0,2.2-1.5,3.6-3.4,3.3c-1.4-0.2-2.4-1.4-2.4-3.1c0-3.9,0-7.8,0-11.7
		c0-0.4,0-0.9,0-1.4c-0.7,0-1.4,0-2.2,0c0,0.4,0,0.8,0,1.2c0,4,0,7.9,0,11.9c0,1.3-0.9,2.6-2,3c-1,0.4-2.5,0-3.2-0.9
		c-0.4-0.5-0.7-1.3-0.7-2c-0.1-5.7,0-11.5,0-17.2c0-0.5,0-1,0.8-1C46.8,53.9,51.1,53.9,55.6,53.9z"/>
	<path d="M55.1,27.8c0.1,4.1-2.6,6.4-6.4,6.5c-3.7,0.1-6.7-2.7-6.7-6.3c0-3.5,3.1-6.7,6.5-6.7C52.3,21.2,55.1,24,55.1,27.8z"/>
	<path d="M36.4,45.6c1.8,0.3,3.1,0.5,4.4,0.6c-0.1,2.7-0.2,5.4-0.4,8c-0.1,1.2-1,1.8-2.3,1.8c-1.2,0-2-0.6-2-1.8
		C36.1,51.4,36.3,48.6,36.4,45.6z"/>
	<path d="M56.5,46.3c1.4-0.2,2.8-0.4,4.2-0.6c0.7,3,0.8,5.9,0.6,8.9c-0.1,1.1-1.1,1.6-2.4,1.5c-1.2-0.1-1.9-0.8-1.9-2
		c-0.1-2.1-0.2-4.2-0.3-6.3C56.7,47.2,56.6,46.8,56.5,46.3z"/>
</g>
</svg>
