<?xml version="1.0" encoding="utf-8"?>
<!-- Generator: Adobe Illustrator 17.1.0, SVG Export Plug-In . SVG Version: 6.00 Build 0)  -->
<!DOCTYPE svg PUBLIC "-//W3C//DTD SVG 1.1//EN" "http://www.w3.org/Graphics/SVG/1.1/DTD/svg11.dtd">
<svg version="1.1" id="Calque_1" xmlns="http://www.w3.org/2000/svg" xmlns:xlink="http://www.w3.org/1999/xlink" x="0px" y="0px"
	 viewBox="0 125.5 595.3 595.5" enable-background="new 0 125.5 595.3 595.5" xml:space="preserve">
<rect y="125.4" fill="#21ABC7" width="595.3" height="595.3"/>
<g>
	<path d="M366.2,395.6c-7.9,1.2-13.9,2.4-20.5,3c-3.6,0.6-7.9,1.2-7.3-6c-0.6,0.6-1.2,1.2-1.8,1.8c0,11.5,0,23,0,33.8
		c0,17.5,3,14.5-14.5,14.5c-19.9,0-39.9,0-59.2,0c-3,0-6.6,0-10.3,0c0-16.3,0-32,0-47.1c-9.7,7.3-18.7-1.2-29,0.6
		c3-24.2,14.5-41.7,34.4-52c9.7-4.8,13.9-3.6,21.2,4.8c6,6.6,20.5,7.3,28.4,1.2c12.7-10.3,16.3-10.3,30.8-1.2
		C355.4,359.3,360.8,376.8,366.2,395.6z"/>
	<path d="M336,451.2c0,2.4,0.6,4.2,0.6,6c0,34.4,0,68.3,0,102.7c0,13.3-9.1,21.8-20.5,19.9c-8.5-1.2-14.5-8.5-14.5-18.7
		c0-23.6,0-47.1,0-70.7c0-2.4,0-5.4,0-8.5c-4.2,0-8.5,0-13.3,0c0,2.4,0,4.8,0,7.3c0,24.2,0,47.7,0,71.9c0,7.9-5.4,15.7-12.1,18.1
		c-6,2.4-15.1,0-19.3-5.4c-2.4-3-4.2-7.9-4.2-12.1c-0.6-34.4,0-69.5,0-103.9c0-3,0-6,4.8-6C282.8,451.2,308.8,451.2,336,451.2z"/>
	<path d="M333,293.4c0.6,24.8-15.7,38.7-38.7,39.3c-22.4,0.6-40.5-16.3-40.5-38.1c0-21.2,18.7-40.5,39.3-40.5
		C316.1,253.5,333,270.5,333,293.4z"/>
	<path d="M220,401c10.9,1.8,18.7,3,26.6,3.6c-0.6,16.3-1.2,32.6-2.4,48.3c-0.6,7.3-6,10.9-13.9,10.9c-7.3,0-12.1-3.6-12.1-10.9
		C218.2,436.1,219.4,419.1,220,401z"/>
	<path d="M341.5,405.2c8.5-1.2,16.9-2.4,25.4-3.6c4.2,18.1,4.8,35.7,3.6,53.8c-0.6,6.6-6.6,9.7-14.5,9.1
		c-7.3-0.6-11.5-4.8-11.5-12.1c-0.6-12.7-1.2-25.4-1.8-38.1C342.7,410.7,342.1,408.3,341.5,405.2z"/>
</g>
<g>
	<path fill="#00002E" d="M296.4,207.6c4.5,0,10.4,0.7,16,3.2c8.6,3.9,13.7,10.5,14.9,19.9c0.4,3.1,0.3,6.2,0.3,9.3
		c0,0.3-0.3,0.8-0.6,0.9c-10.9,4.4-22.1,7.8-34.1,7.5c-7.7-0.2-15.2-2.1-22.5-4.4c-2.5-0.8-5-1.7-7.5-2.6c-0.7-0.2-1-0.5-1-1.3
		c0.1-4-0.2-7.9,0.7-11.8c1.8-8.1,6.4-13.9,13.9-17.3C282.4,208.4,288.5,207.6,296.4,207.6z"/>
	<path fill="#00002E" d="M259.5,272.7c-4-0.9-7.7-2.1-10.9-4.3c-3.5-2.4-6-5.4-6.4-9.7c-0.4-3.8,0.9-7,3.5-9.8
		c2-2.1,4.3-3.8,7.4-3.6c1.5,0.1,3,0.5,4.5,0.9c5.3,1.8,10.5,3.9,16,5.1c5.2,1.1,10.5,1.8,15.9,2c5.3,0.2,10.6,0.1,15.8-0.5
		c6.2-0.7,12.3-2.3,18.2-4.4c3.2-1.1,6.4-2.2,9.6-3c4.5-1.2,8.2,0.5,11.2,3.9c4.8,5.4,4.1,12.6-1.7,17.3c-3.8,3.1-8.3,4.7-13,5.7
		c-0.1,0-0.1,0-0.2-0.1c-0.5-4.9-4.2-6.8-8.1-8.4c-4.5-1.8-9.3-2.6-14.1-2.9c-6.3-0.3-12.6-0.5-18.8-0.4c-6.2,0.1-12.4,0.7-18.3,2.4
		c-1.6,0.5-3.2,1.1-4.6,1.8C262.1,266.5,259.7,268.8,259.5,272.7z"/>
</g>
</svg>
