<?xml version="1.0" encoding="utf-8"?>
<!-- Generator: Adobe Illustrator 17.1.0, SVG Export Plug-In . SVG Version: 6.00 Build 0)  -->
<!DOCTYPE svg PUBLIC "-//W3C//DTD SVG 1.1//EN" "http://www.w3.org/Graphics/SVG/1.1/DTD/svg11.dtd">
<svg version="1.1" id="Calque_1" xmlns="http://www.w3.org/2000/svg" xmlns:xlink="http://www.w3.org/1999/xlink" x="0px" y="0px"
	 viewBox="0 124 595.3 592.5" enable-background="new 0 124 595.3 592.5" xml:space="preserve">
<rect y="125.4" fill="#21ABC7" width="595.3" height="595.3"/>
<g>
	<path d="M300.4,476.5c-3,0-4.8,0-7.9,0c0,3,0,5.4,0,8.5c0,39.3,0,78.6,0,118.5c0,11.5-4.8,18.1-13.9,21.8c-9.1,3-17.5,0.6-24.2-7.9
		c-2.4-3-3.6-7.3-3.6-10.3c0-58.6,0-117.2,0-175.9c0-0.6,0-1.2,0.6-1.8c30.2,0,60.4,0,91.3,0c0,1.8,0.6,3.6,0.6,5.4
		c0,56.2,0,112.4,0,168.6c0,11.5-4.8,18.1-15.1,22.4c-7.3,3-16.9,0.6-23-7.9c-2.4-3-3.6-7.9-3.6-12.1c-0.6-10.9,0-21.8,0-32.6
		c0-29,0-58.6,0-87.6C300.4,482.6,300.4,479.6,300.4,476.5z"/>
	<path d="M220,360.5c4.8-26,27.8-58.6,52-52.6c0.6,9.7,7.3,15.1,15.1,18.7c10.9,5.4,26.6,0,32-12.7c3-7.3,8.5-7.9,13.3-6
		c6.6,2.4,13.3,6,18.1,10.9c11.5,11.5,16.9,26,22.4,41.7c-9.1,1.2-17.5,2.4-26,4.2c-1.2-3-2.4-5.4-3.6-7.9c-0.6,0-0.6,0-1.2,0
		c0,20.5,0,41.1,0,62.2c-30.8,0-61,0-91.9,0c0-20.5,0-41.1,0-61.6c-0.6,0-1.2,0-1.8-0.6c-0.6,1.8-1.2,4.2-2.4,7.3
		C237.5,362.9,229,361.7,220,360.5z"/>
	<path d="M338.4,255.4c-2.4,24.8-15.7,41.1-42.9,41.7c-28.4,0.6-42.3-23.6-42.3-42.3c-0.6-17.5,18.1-42.9,42.3-42.9
		C322.1,212.4,338.4,235.4,338.4,255.4z"/>
	<path d="M348.7,370.2c9.1-1.2,16.9-2.4,26-4.2c1.8,7.9,4.2,15.7,4.2,23.6c1.2,21.8,2.4,44.1,3,65.9c0.6,10.3-4.8,15.7-13.3,15.7
		c-7.9,0-12.7-6-13.3-15.7c-1.2-25.4-3-50.2-4.8-75.5C350.5,376.8,349.3,373.8,348.7,370.2z"/>
	<path d="M218.8,366.6c9.7,1.2,17.5,2.4,26.6,4.2c-7.3,29-8.5,58-9.1,87.6c0,7.9-6.6,13.3-13.9,13.3c-6.6,0-12.7-6.6-12.7-14.5
		c0.6-20.5,1.8-40.5,3.6-60.4C214.5,385.9,217,376.8,218.8,366.6z"/>
</g>
<g>
	<path fill="#FFF200" d="M294.9,341.8c1.8,0,3.6,0,5.4,0c1.2,0,2.4,0,3.6,0.6c1.8,0,3,0.6,4.8,1.2c2.4,0.6,4.2,1.8,6,3
		c2.4,1.2,4.2,3,6,4.8c1.8,1.8,3.6,3.6,5.4,6c1.2,1.8,1.8,3,3,4.8c0.6,1.2,1.2,2.4,1.8,3.6c0.6,1.2,0.6,1.8,0.6,3
		c0,1.2,0.6,1.8,0.6,3c0,1.2,0,2.4,0.6,3.6c0,1.2,0,3,0,4.2c0,1.2,0,1.8-0.6,3c0,0.6-0.6,1.8-0.6,2.4s-0.6,1.2-0.6,1.8
		c-0.6,1.8-1.2,3-2.4,4.8c-0.6,1.2-1.8,2.4-2.4,3.6c-1.2,1.8-3,3.6-4.8,5.4c-1.8,1.2-3,2.4-4.8,3.6c-0.6,0-1.2,0.6-1.8,0.6
		s-1.2,0.6-1.8,1.2c-1.2,0.6-2.4,1.2-3.6,1.2c-1.2,0.6-3,0.6-4.2,1.2c-0.6,0-1.8,0-2.4,0c-1.8,0-3.6,0-5.4,0c-1.2,0-1.8,0-3-0.6
		c-1.2,0-2.4-0.6-4.2-0.6c-0.6,0-1.8,0-2.4-0.6c-0.6,0-1.2,0-1.8-0.6c-0.6,0-1.8-0.6-2.4-0.6c-0.6,0-1.2-0.6-2.4-0.6
		c-0.6,0-1.2-0.6-1.8-0.6s-1.2-0.6-2.4-1.2c-0.6,0-1.2-0.6-1.8-0.6c-1.8-0.6-3-1.8-4.2-3c-1.2-1.2-2.4-1.8-3.6-3.6
		c-0.6-1.2-1.8-2.4-2.4-3.6c-0.6-1.2-1.2-2.4-1.8-3.6c-0.6-1.8-1.2-3.6-1.2-6c0-1.2,0-2.4,0-3.6c0-1.8,0-4.2,0.6-6
		c0-1.2,0.6-3,0.6-4.2c0-1.2,0.6-1.8,0.6-3c0-0.6,0.6-1.8,0.6-2.4c0-0.6,0.6-1.8,0.6-2.4c0-1.2,0.6-1.8,0.6-3
		c0.6-1.2,0.6-2.4,1.2-3.6c0.6-1.2,1.2-1.8,1.8-3c0.6-1.8,1.8-3,3.6-4.2c1.8-1.8,3.6-3,6-4.2c1.2-0.6,2.4-1.2,3-1.2
		c1.2-0.6,2.4-0.6,3-1.2c1.2,0,2.4-0.6,4.2-0.6C291.3,341.8,293.1,341.8,294.9,341.8z M299.2,406.4c3,0,5.4,0,7.9-0.6
		c1.2,0,3-0.6,4.2-0.6c1.8-0.6,3.6-1.2,4.8-1.8c1.8-1.2,3.6-2.4,5.4-4.2s3.6-4.2,4.8-7.3c0.6-0.6,0.6-1.8,1.2-2.4
		c0.6-1.2,0.6-1.8,1.2-3c0-0.6,0.6-1.2,0.6-1.8c0-1.2,0.6-1.8,0.6-3c0-1.2,0.6-3,0-4.2c0,0,0,0,0-0.6c0-1.8,0-3.6-0.6-4.8
		c0-0.6,0-1.8-0.6-2.4c-0.6-1.2-1.2-2.4-1.8-3c-0.6-1.8-1.2-3-1.8-4.8c-0.6-1.2-0.6-1.8-1.2-3c-1.2-1.8-2.4-3-3.6-4.8
		c-1.2-1.2-2.4-2.4-4.2-3c-1.2-0.6-1.8-1.2-3-1.8c-1.2-0.6-1.8-1.2-3-1.2c-1.2-0.6-2.4-0.6-3.6-1.2c-1.2-0.6-2.4-0.6-3-1.2
		c-1.2,0-2.4-0.6-3.6-0.6c-1.8,0-3,0-4.8-0.6c0,0,0,0-0.6,0c-0.6,0-0.6,0-1.2,0c-0.6,0-1.2,0-2.4,0c-1.8,0-3,0.6-4.8,0.6
		c-1.2,0-2.4,0.6-3.6,0.6c-1.8,0.6-3,1.2-4.8,1.8c-1.2,0.6-3,1.8-4.2,3c-1.2,1.2-2.4,2.4-3.6,4.2c-0.6,1.2-1.2,3-1.8,4.2
		c-0.6,1.2-0.6,3-1.2,4.2c-0.6,0.6-0.6,1.8-0.6,3c-0.6,1.2-0.6,2.4-1.2,3.6c0,1.2-0.6,2.4-0.6,3c0,1.8-0.6,3-0.6,4.8s0,3.6,0,5.4
		c0,1.2,0,1.8,0.6,3c0,1.2,0.6,2.4,1.2,3.6c0.6,1.2,1.2,2.4,1.2,3.6c0.6,1.2,1.8,2.4,3,3.6c1.2,1.2,1.8,1.8,3,3
		c1.2,0.6,1.8,1.2,3,1.8c1.2,0.6,2.4,1.2,3.6,1.2c1.2,0.6,1.8,0.6,3,0.6c1.8,0.6,3.6,0.6,4.8,1.2c1.8,0,3,0.6,4.8,0.6
		C295.5,406.4,297.9,406.4,299.2,406.4z"/>
	<path fill="#FFF200" d="M281,386.5c1.2,0,2.4,0,3,0.6c1.2,0,2.4,0.6,3,1.8c1.2,1.8,2.4,3.6,4.8,4.8c1.2,0.6,2.4,1.2,4.2,1.8
		c1.2,0.6,3,0.6,4.2,0c1.2,0,1.8-0.6,3-1.8l0.6-0.6c0.6,0,0.6-0.6,1.2-0.6c1.2,0,2.4,0,3.6,0s2.4-0.6,3-1.2c0.6-1.2,1.2-1.8,1.8-3
		c1.2-1.8,2.4-3,3.6-4.8c1.2-1.2,1.8-3,1.8-5.4c0-1.2,0-2.4,0-3.6c0-0.6,0.6-1.2,0.6-2.4c0-0.6,0.6-1.2,0.6-2.4c0-0.6,0-0.6-0.6-0.6
		s-0.6-0.6-1.2-0.6c0,0-0.6-0.6,0-0.6c0,0,0.6-0.6,0.6,0c1.2,0.6,3,0.6,4.2,1.2c0,0,0.6,0,0.6,0.6v0.6h-0.6h-0.6
		c-0.6,0-0.6,0-0.6,0.6c0,1.8-0.6,3.6-1.2,4.8v0.6c0,1.2,0,2.4-0.6,3.6c0,1.2,0,1.8-0.6,3c0,0.6,0,0.6,0.6,0.6c1.2,0,2.4,0.6,3,1.2
		c0.6,0.6,0.6,1.2,1.2,1.8c0.6,1.2,0.6,2.4,0,3.6c0,1.8-1.2,3-2.4,3c-1.2,0.6-1.8,0-3-0.6c-0.6-0.6-1.8-1.8-2.4-2.4l-0.6-0.6
		c-0.6-0.6-0.6-0.6-1.2,0c-0.6,1.2-1.8,2.4-2.4,3l-0.6,0.6l-0.6,0.6c0,0-0.6,0.6-1.2,0.6h-0.6c-1.2,0-1.8,0-3,0
		c-1.2,0-2.4,0.6-3.6,1.2s-2.4,0.6-3,0.6c-1.2,0-2.4,0-3.6,0c-1.8,0-3-0.6-4.2-1.2c-1.8-1.2-3-2.4-4.2-3.6c-0.6-0.6-0.6-0.6-1.2-1.2
		c-0.6-0.6-1.2-1.2-2.4-1.2c-1.8-0.6-3.6-0.6-5.4-1.2c-0.6,0-1.2-0.6-1.2-1.2c-1.2-1.2-1.8-3-2.4-4.8c-0.6-1.2-0.6-2.4-1.2-3
		c0-0.6,0-0.6-0.6-0.6s-0.6,0.6-1.2,0.6c0,0-0.6,0-0.6,0.6h-0.6v-0.6l0.6-0.6c1.8-1.2,3-1.8,5.4-1.8l0,0c0,0,0,0,0.6,0
		c0,0,0,0,0,0.6c-0.6,0-0.6,0.6-1.2,0.6c-0.6,0.6-0.6,0.6-0.6,1.2c0.6,1.8,1.2,3.6,1.8,5.4c0.6,0.6,1.2,1.2,1.2,1.8
		c0.6,0.6,1.2,0.6,1.8,0.6C279.8,387.1,280.4,387.1,281,386.5C281,387.1,281,386.5,281,386.5z M322.7,388.9c0-0.6,0-0.6,0-1.2
		s-0.6-1.2-1.2-1.8c-0.6,0-0.6-0.6-1.2-0.6c-0.6-0.6-1.2-0.6-1.8-0.6s-0.6,0-1.2,0.6c0,0.6,0,0.6,0.6,1.2c0.6,0.6,1.2,0.6,1.8,1.2
		s0.6,1.2,0.6,1.8l-0.6,0.6h-0.6c0-0.6-0.6-0.6-0.6-1.2c-0.6-0.6-1.2-1.2-1.8-1.2s-0.6,0-0.6,0.6v0.6c0,0,0,0,0,0.6
		c0.6,0.6,1.2,1.2,1.8,1.2c0.6,0.6,1.2,1.2,2.4,1.8c0.6,0.6,1.2,0,1.2,0C322.1,391.3,322.7,390.1,322.7,388.9z"/>
	<path fill="#FFF200" d="M311.2,362.9c-0.6,0-1.2,0-1.8-0.6c-0.6-0.6-1.2-1.2-1.2-1.8c-0.6-0.6-1.2-0.6-1.2,0
		c-0.6,0.6-0.6,1.2-0.6,1.8s-0.6,0.6-0.6,1.2c-0.6,0.6-0.6,0.6-1.2,0.6c-0.6,0-0.6,0-0.6-0.6s0.6-1.2,0.6-1.8
		c0.6-0.6,1.2-1.2,1.8-2.4c0.6-0.6,0-0.6,0-1.2c-0.6-0.6-1.8-1.2-2.4-2.4c0,0-0.6-0.6-0.6-1.2c0-0.6,0-0.6,0.6-0.6
		c0.6,0,0.6,0,1.2,0.6c0.6,0.6,1.2,1.2,1.8,1.8l0.6,0.6c0.6,0,0.6,0,1.2-0.6c0.6-0.6,0.6-1.2,1.2-2.4l0.6-0.6c0.6-0.6,0.6-0.6,1.2,0
		c0.6,0,0.6,0.6,0,1.2s-1.2,1.2-1.2,1.8s-0.6,0.6-0.6,1.2c-0.6,0.6-0.6,1.2,0.6,1.8c1.2,0.6,2.4,1.8,3,2.4c0,0,0,0.6,0.6,0.6
		C311.8,362.9,311.8,362.9,311.2,362.9L311.2,362.9z"/>
	<path fill="#FFF200" d="M285.3,367.8c-0.6,0-0.6,0-0.6-0.6c-0.6-0.6-1.2-1.8-1.8-2.4l-0.6-0.6c0-0.6-0.6-0.6-0.6,0
		c-0.6,0.6-1.2,1.8-1.2,2.4c-0.6,0.6-1.2,0.6-1.2,0.6s-0.6-0.6,0-0.6c0.6-0.6,0.6-1.2,1.2-1.8c0.6-0.6,0.6-1.2,1.2-1.8
		c0.6-0.6,0-1.2,0-1.2c-0.6-0.6-1.2-1.2-1.8-1.8c0,0-0.6-0.6,0-1.2c0-0.6,0.6-0.6,1.2-0.6c0,0.6,0.6,0.6,0.6,1.2s0.6,1.2,0.6,1.2
		c0,0.6,0.6,0.6,0.6,0c0.6-1.2,1.8-1.8,2.4-3c0,0,0,0,0-0.6c0.6-0.6,0.6-0.6,1.2,0c0,0,0,0.6,0,1.2s-0.6,0.6-0.6,0.6
		c-0.6,0.6-1.8,1.8-2.4,2.4s-0.6,0.6,0,1.2c1.2,1.2,2.4,1.8,3.6,3c0.6,0.6,0.6,0.6,0,1.2C285.9,367.2,285.9,367.8,285.3,367.8z"/>
</g>
</svg>
