<?xml version="1.0" encoding="utf-8"?>
<!-- Generator: Adobe Illustrator 17.1.0, SVG Export Plug-In . SVG Version: 6.00 Build 0)  -->
<!DOCTYPE svg PUBLIC "-//W3C//DTD SVG 1.1//EN" "http://www.w3.org/Graphics/SVG/1.1/DTD/svg11.dtd">
<svg version="1.1" id="Calque_1" xmlns="http://www.w3.org/2000/svg" xmlns:xlink="http://www.w3.org/1999/xlink" x="0px" y="0px"
	 viewBox="0 0 98.5 97.8" enable-background="new 0 0 98.5 97.8" xml:space="preserve">
<rect fill="#3D3D3D" width="98.5" height="98.5"/>
<g>
	<path d="M49.7,58.1c-0.5,0-0.8,0-1.3,0c0,0.5,0,0.9,0,1.4c0,6.5,0,13,0,19.6c0,1.9-0.8,3-2.3,3.6c-1.5,0.5-2.9,0.1-4-1.3
		c-0.4-0.5-0.6-1.2-0.6-1.7c0-9.7,0-19.4,0-29.1c0-0.1,0-0.2,0.1-0.3c5,0,10,0,15.1,0c0,0.3,0.1,0.6,0.1,0.9c0,9.3,0,18.6,0,27.9
		c0,1.9-0.8,3-2.5,3.7c-1.2,0.5-2.8,0.1-3.8-1.3c-0.4-0.5-0.6-1.3-0.6-2c-0.1-1.8,0-3.6,0-5.4c0-4.8,0-9.7,0-14.5
		C49.7,59.1,49.7,58.6,49.7,58.1z"/>
	<path d="M36.4,38.9c0.8-4.3,4.6-9.7,8.6-8.7c0.1,1.6,1.2,2.5,2.5,3.1c1.8,0.9,4.4,0,5.3-2.1c0.5-1.2,1.4-1.3,2.2-1
		c1.1,0.4,2.2,1,3,1.8c1.9,1.9,2.8,4.3,3.7,6.9c-1.5,0.2-2.9,0.4-4.3,0.7c-0.2-0.5-0.4-0.9-0.6-1.3c-0.1,0-0.1,0-0.2,0
		c0,3.4,0,6.8,0,10.3c-5.1,0-10.1,0-15.2,0c0-3.4,0-6.8,0-10.2c-0.1,0-0.2,0-0.3-0.1c-0.1,0.3-0.2,0.7-0.4,1.2
		C39.3,39.3,37.9,39.1,36.4,38.9z"/>
	<path d="M56,21.5c-0.4,4.1-2.6,6.8-7.1,6.9c-4.7,0.1-7-3.9-7-7c-0.1-2.9,3-7.1,7-7.1C53.3,14.4,56,18.2,56,21.5z"/>
	<path d="M57.7,40.5c1.5-0.2,2.8-0.4,4.3-0.7c0.3,1.3,0.7,2.6,0.7,3.9c0.2,3.6,0.4,7.3,0.5,10.9c0.1,1.7-0.8,2.6-2.2,2.6
		c-1.3,0-2.1-1-2.2-2.6c-0.2-4.2-0.5-8.3-0.8-12.5C58,41.6,57.8,41.1,57.7,40.5z"/>
	<path d="M36.2,39.9c1.6,0.2,2.9,0.4,4.4,0.7c-1.2,4.8-1.4,9.6-1.5,14.5c0,1.3-1.1,2.2-2.3,2.2c-1.1,0-2.1-1.1-2.1-2.4
		c0.1-3.4,0.3-6.7,0.6-10C35.5,43.1,35.9,41.6,36.2,39.9z"/>
</g>
<g>
	<path fill="#FFF200" d="M48.8,35.8c0.3,0,0.6,0,0.9,0c0.2,0,0.4,0,0.6,0.1c0.3,0,0.5,0.1,0.8,0.2c0.4,0.1,0.7,0.3,1,0.5
		c0.4,0.2,0.7,0.5,1,0.8c0.3,0.3,0.6,0.6,0.9,1c0.2,0.3,0.3,0.5,0.5,0.8c0.1,0.2,0.2,0.4,0.3,0.6c0.1,0.2,0.1,0.3,0.1,0.5
		c0,0.2,0.1,0.3,0.1,0.5c0,0.2,0,0.4,0.1,0.6c0,0.2,0,0.5,0,0.7c0,0.2,0,0.3-0.1,0.5c0,0.1-0.1,0.3-0.1,0.4c0,0.1-0.1,0.2-0.1,0.3
		c-0.1,0.3-0.2,0.5-0.4,0.8c-0.1,0.2-0.3,0.4-0.4,0.6c-0.2,0.3-0.5,0.6-0.8,0.9c-0.3,0.2-0.5,0.4-0.8,0.6c-0.1,0-0.2,0.1-0.3,0.1
		c-0.1,0-0.2,0.1-0.3,0.2c-0.2,0.1-0.4,0.2-0.6,0.2c-0.2,0.1-0.5,0.1-0.7,0.2c-0.1,0-0.3,0-0.4,0c-0.3,0-0.6,0-0.9,0
		c-0.2,0-0.3,0-0.5-0.1c-0.2,0-0.4-0.1-0.7-0.1c-0.1,0-0.3,0-0.4-0.1c-0.1,0-0.2,0-0.3-0.1c-0.1,0-0.3-0.1-0.4-0.1
		c-0.1,0-0.2-0.1-0.4-0.1c-0.1,0-0.2-0.1-0.3-0.1c-0.1,0-0.2-0.1-0.4-0.2c-0.1,0-0.2-0.1-0.3-0.1c-0.3-0.1-0.5-0.3-0.7-0.5
		c-0.2-0.2-0.4-0.3-0.6-0.6c-0.1-0.2-0.3-0.4-0.4-0.6c-0.1-0.2-0.2-0.4-0.3-0.6c-0.1-0.3-0.2-0.6-0.2-1c0-0.2,0-0.4,0-0.6
		c0-0.3,0-0.7,0.1-1c0-0.2,0.1-0.5,0.1-0.7c0-0.2,0.1-0.3,0.1-0.5c0-0.1,0.1-0.3,0.1-0.4c0-0.1,0.1-0.3,0.1-0.4
		c0-0.2,0.1-0.3,0.1-0.5c0.1-0.2,0.1-0.4,0.2-0.6c0.1-0.2,0.2-0.3,0.3-0.5c0.1-0.3,0.3-0.5,0.6-0.7c0.3-0.3,0.6-0.5,1-0.7
		c0.2-0.1,0.4-0.2,0.5-0.2c0.2-0.1,0.4-0.1,0.5-0.2c0.2,0,0.4-0.1,0.7-0.1C48.2,35.8,48.5,35.8,48.8,35.8z M49.5,46.5
		c0.5,0,0.9,0,1.3-0.1c0.2,0,0.5-0.1,0.7-0.1c0.3-0.1,0.6-0.2,0.8-0.3c0.3-0.2,0.6-0.4,0.9-0.7c0.3-0.3,0.6-0.7,0.8-1.2
		c0.1-0.1,0.1-0.3,0.2-0.4c0.1-0.2,0.1-0.3,0.2-0.5c0-0.1,0.1-0.2,0.1-0.3c0-0.2,0.1-0.3,0.1-0.5c0-0.2,0.1-0.5,0-0.7c0,0,0,0,0-0.1
		c0-0.3,0-0.6-0.1-0.8c0-0.1,0-0.3-0.1-0.4c-0.1-0.2-0.2-0.4-0.3-0.5c-0.1-0.3-0.2-0.5-0.3-0.8c-0.1-0.2-0.1-0.3-0.2-0.5
		c-0.2-0.3-0.4-0.5-0.6-0.8c-0.2-0.2-0.4-0.4-0.7-0.5c-0.2-0.1-0.3-0.2-0.5-0.3c-0.2-0.1-0.3-0.2-0.5-0.2c-0.2-0.1-0.4-0.1-0.6-0.2
		c-0.2-0.1-0.4-0.1-0.5-0.2c-0.2,0-0.4-0.1-0.6-0.1c-0.3,0-0.5,0-0.8-0.1c0,0,0,0-0.1,0c-0.1,0-0.1,0-0.2,0c-0.1,0-0.2,0-0.4,0
		c-0.3,0-0.5,0.1-0.8,0.1c-0.2,0-0.4,0.1-0.6,0.1c-0.3,0.1-0.5,0.2-0.8,0.3c-0.2,0.1-0.5,0.3-0.7,0.5c-0.2,0.2-0.4,0.4-0.6,0.7
		c-0.1,0.2-0.2,0.5-0.3,0.7c-0.1,0.2-0.1,0.5-0.2,0.7c-0.1,0.1-0.1,0.3-0.1,0.5c-0.1,0.2-0.1,0.4-0.2,0.6c0,0.2-0.1,0.4-0.1,0.5
		c0,0.3-0.1,0.5-0.1,0.8c0,0.3,0,0.6,0,0.9c0,0.2,0,0.3,0.1,0.5c0,0.2,0.1,0.4,0.2,0.6c0.1,0.2,0.2,0.4,0.2,0.6
		c0.1,0.2,0.3,0.4,0.5,0.6c0.2,0.2,0.3,0.3,0.5,0.5c0.2,0.1,0.3,0.2,0.5,0.3c0.2,0.1,0.4,0.2,0.6,0.2c0.2,0.1,0.3,0.1,0.5,0.1
		c0.3,0.1,0.6,0.1,0.8,0.2c0.3,0,0.5,0.1,0.8,0.1C48.9,46.5,49.3,46.5,49.5,46.5z"/>
	<path fill="#FFF200" d="M46.5,43.2c0.2,0,0.4,0,0.5,0.1c0.2,0,0.4,0.1,0.5,0.3c0.2,0.3,0.4,0.6,0.8,0.8c0.2,0.1,0.4,0.2,0.7,0.3
		c0.2,0.1,0.5,0.1,0.7,0c0.2,0,0.3-0.1,0.5-0.3c0,0,0.1-0.1,0.1-0.1c0.1,0,0.1-0.1,0.2-0.1c0.2,0,0.4,0,0.6,0c0.2,0,0.4-0.1,0.5-0.2
		c0.1-0.2,0.2-0.3,0.3-0.5c0.2-0.3,0.4-0.5,0.6-0.8c0.2-0.2,0.3-0.5,0.3-0.9c0-0.2,0-0.4,0-0.6c0-0.1,0.1-0.2,0.1-0.4
		c0-0.1,0.1-0.2,0.1-0.4c0-0.1,0-0.1-0.1-0.1c-0.1,0-0.1-0.1-0.2-0.1c0,0-0.1-0.1,0-0.1c0,0,0.1-0.1,0.1,0c0.2,0.1,0.5,0.1,0.7,0.2
		c0,0,0.1,0,0.1,0.1c0,0,0,0.1,0,0.1c0,0-0.1,0-0.1,0c0,0-0.1,0-0.1,0c-0.1,0-0.1,0-0.1,0.1c0,0.3-0.1,0.6-0.2,0.8c0,0,0,0.1,0,0.1
		c0,0.2,0,0.4-0.1,0.6c0,0.2,0,0.3-0.1,0.5c0,0.1,0,0.1,0.1,0.1c0.2,0,0.4,0.1,0.5,0.2c0.1,0.1,0.1,0.2,0.2,0.3
		c0.1,0.2,0.1,0.4,0,0.6c0,0.3-0.2,0.5-0.4,0.5c-0.2,0.1-0.3,0-0.5-0.1c-0.1-0.1-0.3-0.3-0.4-0.4c0,0-0.1-0.1-0.1-0.1
		c-0.1-0.1-0.1-0.1-0.2,0c-0.1,0.2-0.3,0.4-0.4,0.5c0,0-0.1,0.1-0.1,0.1c0,0-0.1,0.1-0.1,0.1c0,0-0.1,0.1-0.2,0.1c0,0-0.1,0-0.1,0
		c-0.2,0-0.3,0-0.5,0c-0.2,0-0.4,0.1-0.6,0.2c-0.2,0.1-0.4,0.1-0.5,0.1c-0.2,0-0.4,0-0.6,0c-0.3,0-0.5-0.1-0.7-0.2
		c-0.3-0.2-0.5-0.4-0.7-0.6c-0.1-0.1-0.1-0.1-0.2-0.2c-0.1-0.1-0.2-0.2-0.4-0.2c-0.3-0.1-0.6-0.1-0.9-0.2c-0.1,0-0.2-0.1-0.2-0.2
		c-0.2-0.2-0.3-0.5-0.4-0.8c-0.1-0.2-0.1-0.4-0.2-0.5c0-0.1,0-0.1-0.1-0.1c-0.1,0-0.1,0.1-0.2,0.1c0,0-0.1,0-0.1,0.1
		c0,0-0.1,0-0.1,0c0,0,0-0.1,0-0.1c0,0,0.1-0.1,0.1-0.1c0.3-0.2,0.5-0.3,0.9-0.3c0,0,0,0,0,0c0,0,0,0,0.1,0c0,0,0,0,0,0.1
		c-0.1,0-0.1,0.1-0.2,0.1c-0.1,0.1-0.1,0.1-0.1,0.2c0.1,0.3,0.2,0.6,0.3,0.9c0.1,0.1,0.2,0.2,0.2,0.3c0.1,0.1,0.2,0.1,0.3,0.1
		C46.3,43.3,46.4,43.3,46.5,43.2C46.5,43.3,46.5,43.2,46.5,43.2z M53.4,43.6c0-0.1,0-0.1,0-0.2c0-0.1-0.1-0.2-0.2-0.3
		c-0.1,0-0.1-0.1-0.2-0.1c-0.1-0.1-0.2-0.1-0.3-0.1c-0.1,0-0.1,0-0.2,0.1c0,0.1,0,0.1,0.1,0.2c0.1,0.1,0.2,0.1,0.3,0.2
		c0.1,0.1,0.1,0.2,0.1,0.3c0,0-0.1,0.1-0.1,0.1c0,0-0.1,0-0.1,0c0-0.1-0.1-0.1-0.1-0.2c-0.1-0.1-0.2-0.2-0.3-0.2
		c-0.1,0-0.1,0-0.1,0.1c0,0,0,0.1,0,0.1c0,0,0,0,0,0.1c0.1,0.1,0.2,0.2,0.3,0.2c0.1,0.1,0.2,0.2,0.4,0.3c0.1,0.1,0.2,0,0.2,0
		C53.3,44,53.4,43.8,53.4,43.6z"/>
	<path fill="#FFF200" d="M51.5,39.3c-0.1,0-0.2,0-0.3-0.1c-0.1-0.1-0.2-0.2-0.2-0.3c-0.1-0.1-0.2-0.1-0.2,0
		c-0.1,0.1-0.1,0.2-0.1,0.3c0,0.1-0.1,0.1-0.1,0.2c-0.1,0.1-0.1,0.1-0.2,0.1c-0.1,0-0.1,0-0.1-0.1c0-0.1,0.1-0.2,0.1-0.3
		c0.1-0.1,0.2-0.2,0.3-0.4c0.1-0.1,0-0.1,0-0.2c-0.1-0.1-0.3-0.2-0.4-0.4c0,0-0.1-0.1-0.1-0.2c0-0.1,0-0.1,0.1-0.1
		c0.1,0,0.1,0,0.2,0.1c0.1,0.1,0.2,0.2,0.3,0.3c0,0,0.1,0.1,0.1,0.1c0.1,0,0.1,0,0.2-0.1c0.1-0.1,0.1-0.2,0.2-0.4
		c0,0,0.1-0.1,0.1-0.1c0.1-0.1,0.1-0.1,0.2,0c0.1,0,0.1,0.1,0,0.2c-0.1,0.1-0.2,0.2-0.2,0.3c0,0.1-0.1,0.1-0.1,0.2
		c-0.1,0.1-0.1,0.2,0.1,0.3c0.2,0.1,0.4,0.3,0.5,0.4c0,0,0,0.1,0.1,0.1C51.6,39.3,51.6,39.3,51.5,39.3
		C51.5,39.3,51.5,39.3,51.5,39.3z"/>
	<path fill="#FFF200" d="M47.2,40.1c-0.1,0-0.1,0-0.1-0.1c-0.1-0.1-0.2-0.3-0.3-0.4c0,0-0.1-0.1-0.1-0.1c0-0.1-0.1-0.1-0.1,0
		c-0.1,0.1-0.2,0.3-0.2,0.4c-0.1,0.1-0.2,0.1-0.2,0.1c0,0-0.1-0.1,0-0.1c0.1-0.1,0.1-0.2,0.2-0.3c0.1-0.1,0.1-0.2,0.2-0.3
		c0.1-0.1,0-0.2,0-0.2c-0.1-0.1-0.2-0.2-0.3-0.3c0,0-0.1-0.1,0-0.2c0-0.1,0.1-0.1,0.2-0.1c0,0.1,0.1,0.1,0.1,0.2
		c0,0.1,0.1,0.2,0.1,0.2c0,0.1,0.1,0.1,0.1,0c0.1-0.2,0.3-0.3,0.4-0.5c0,0,0,0,0-0.1c0.1-0.1,0.1-0.1,0.2,0c0,0,0,0.1,0,0.2
		c0,0.1-0.1,0.1-0.1,0.1c-0.1,0.1-0.3,0.3-0.4,0.4c-0.1,0.1-0.1,0.1,0,0.2c0.2,0.2,0.4,0.3,0.6,0.5c0.1,0.1,0.1,0.1,0,0.2
		C47.3,40,47.3,40.1,47.2,40.1z"/>
</g>
</svg>
