<?xml version="1.0" encoding="utf-8"?>
<!-- Generator: Adobe Illustrator 17.1.0, SVG Export Plug-In . SVG Version: 6.00 Build 0)  -->
<!DOCTYPE svg PUBLIC "-//W3C//DTD SVG 1.1//EN" "http://www.w3.org/Graphics/SVG/1.1/DTD/svg11.dtd">
<svg version="1.1" id="Calque_1" xmlns="http://www.w3.org/2000/svg" xmlns:xlink="http://www.w3.org/1999/xlink" x="0px" y="0px"
	 viewBox="0 248.5 595.3 593.4" enable-background="new 0 248.5 595.3 593.4" xml:space="preserve">
<rect y="248.9" fill="#21ABC7" width="595.3" height="595.3"/>
<g>
	<path d="M359.6,582.4c0-18.7,0-36.9,0-54.4c0-18.1-1.8-35.7-10.3-52.6c0,29.6,0,59.8,0,90c-34.4,0-67.7,0-100.9,0
		c0-30.8,0-61.6,0-91.9c-9.1,16.9-11.5,35.1-12.1,53.2c-0.6,18.1,0,36.9,0,55.6c-10.9-1.8-19.3-2.4-28.4-4.2c-1.2,0-3-3-3.6-4.2
		c-0.6-36.9,0-73.1,12.1-108.2c2.4-7.3,5.4-14.5,9.7-21.2c6.6-12.1,18.1-18.7,32-19.9c3.6-0.6,7.9,0,11.5-0.6
		c4.8-0.6,7.3,1.2,8.5,6.6c2.4,10.9,10.9,18.1,19.3,24.8c1.2,0.6,4.8,0,6-1.2c6-8.5,12.7-16.3,18.1-25.4c1.8-3.6,3.6-4.8,7.3-4.8
		c20.5-1.2,34.4,8.5,44.7,26c9.1,15.7,13.3,33.2,14.5,50.8c1.8,23.6,3,46.5,4.2,70.1c0.6,5.4-1.8,7.3-6.6,7.9
		C377.1,579.4,369.3,580.6,359.6,582.4z"/>
	<path d="M348.7,575.2c0,16.3,0,32,0,47.7c0,47.1,0,93.7,0,140.8c0,7.9-1.2,15.1-7.9,20.5c-7.9,6-15.7,8.5-24.8,4.2
		c-9.1-4.3-13.3-10.9-13.3-21.2c0-55,0-109.4,0-164.4c0-3,0-5.4,0-9.1c-3,0-5.4,0-9.1,0c0,3,0,5.4,0,8.5c0,53.8,0,107,0,160.8
		c0,8.5-1.8,16.3-9.1,21.8c-7.9,5.4-15.7,7.3-24.2,3.6c-9.1-3.6-12.7-10.9-12.7-19.9c0-63.5,0-126.3,0-189.8c0-1.2,0.6-1.8,0.6-3
		C281.6,575.2,314.9,575.2,348.7,575.2z"/>
	<path d="M298.5,322c27.8-2.4,45.9,24.2,45.3,45.3c-1.2,26.6-17.5,44.1-44.7,44.7c-26,0.6-46.5-19.9-46.5-44.7
		C252,341.4,272,322,298.5,322z"/>
	<path d="M391,583.6c-0.6,7.3,0,13.9-1.2,19.9c-1.2,8.5-7.3,13.3-15.1,12.7c-8.5-0.6-13.9-6-15.1-14.5c-1.2-13.3-1.2-13.9,12.1-15.7
		C378.3,585.4,384.4,584.8,391,583.6z"/>
	<path d="M235.7,588.5c0,5.4,0.6,10.3,0,14.5c-0.6,7.3-7.3,13.9-13.9,14.5c-7.3,0.6-14.5-4.8-15.7-12.1c-1.2-6.6-1.2-13.3-1.8-21.2
		C215.1,585.4,224.8,586.6,235.7,588.5z"/>
</g>
<g>
	<path fill="#FFFF00" d="M251.4,350c3.6-0.7,7.2-1.9,10.9-2.1c10.8-0.5,21.4,0.5,32.1,2.4c5.3,0.9,11.1-0.7,16.6-1.4
		c11.6-1.3,23.2-1.9,34.7,0.4c0,1.5,0,2.9,0,4.4c-4.4,2.5-5,7.1-5.8,11.3c-1.1,6.3-4,10.5-11,10.4c-5-0.1-10,0.1-15-0.5
		c-3.8-0.5-6.7-2.9-8.2-6.6c-1-2.5-2.1-5-2.9-7.5c-0.7-2.1-1.5-3.6-4.3-3.5c-2.7,0.1-3.8,1-4.6,3.5c-4.5,13.3-7.2,15.1-21.4,15
		c-2.8,0-5.9,0.1-8.3-1c-2.4-1.1-4.8-3.4-6.1-5.7c-1.4-2.6-1.4-6-2.6-8.7c-0.9-2.2-2.8-4-4.3-5.9C251.4,353,251.4,351.5,251.4,350z"
		/>
</g>
</svg>
