<?xml version="1.0" encoding="utf-8"?>
<!-- Generator: Adobe Illustrator 17.1.0, SVG Export Plug-In . SVG Version: 6.00 Build 0)  -->
<!DOCTYPE svg PUBLIC "-//W3C//DTD SVG 1.1//EN" "http://www.w3.org/Graphics/SVG/1.1/DTD/svg11.dtd">
<svg version="1.1" id="Calque_1" xmlns="http://www.w3.org/2000/svg" xmlns:xlink="http://www.w3.org/1999/xlink" x="0px" y="0px"
	 viewBox="0 124.9 595.3 595" enable-background="new 0 124.9 595.3 595" xml:space="preserve">
<rect y="125.4" fill="#3D3D3D" width="595.3" height="595.3"/>
<g>
	<path d="M349.8,349.5c0,44.4,0,88.8,0,133.8c0,51.6,0,103,0,153.9c0,14.2-4.7,21.9-16,26.1c-11.2,4.7-21.3,0.6-28.5-8.3
		c-3.5-4.2-4.7-10.7-4.7-16.6c-0.6-55.6,0-111.9,0-167.6c0-3,0-5.3,0-8.9c-3,0-5.3,0-8.3,0c0,3,0,5.3,0,7.7c0,56.3,0,112.5,0,168.2
		c0,13-4.7,20.1-16.6,24.9c-10.1,4.2-19.6,1.2-26.6-6.5c-3.5-4.2-5.9-10.7-5.9-16c-0.6-98.3,0-196.6,0-294.9c-0.6,0-1.2-0.6-1.8-0.6
		c-2.4,8.3-5.3,17.2-7.1,25.5c-6.5,31.3-5.9,63.3-4.2,95.3c0.6,7.7-2.4,14.2-9.5,16.6c-4.2,1.8-10.1,1.2-14.8-0.6
		c-7.1-3-8.3-10.1-8.3-16.6c0.6-26.1,0-52.7,1.8-78.7c1.2-24.3,8.3-47.9,21.3-69.3c8.3-13,20.1-21.9,36.7-22.5
		c26.6-0.6,53.3-0.6,79.4,0c5.3,0,10.7,2.4,15.4,4.7c21.9,11.2,29.6,32.6,35.5,54.4c10.1,37.9,9.5,76.4,7.1,114.9
		c-0.6,8.9-8.9,16-17.2,15.4c-8.9-1.2-15.4-8.9-14.8-18.9c1.8-32.6,2.4-65.1-4.7-97.1c-1.8-7.1-4.2-14.2-5.9-20.7
		C351,349.5,350.3,349.5,349.8,349.5z M295.9,442.5c4.7-6.5,9.5-12.4,14.2-18.4c3.5-4.2,4.7-8.3,3.5-13.6
		c-1.8-8.3-2.4-16.6-3.5-25.5c-2.4-15.4-4.2-30.2-6.5-45c-5.9,0-10.7,0-15.4,0c-3.5,24.9-7.1,49.7-10.1,74c0,1.8,0,4.7,1.2,5.9
		C284,428.3,290,435.4,295.9,442.5z M303.6,313.5c-5.9,2.4-13-3-15.4,4.2c-1.2,4.2-6.5,9.5-0.6,14.2c4.7,4.2,11.2,4.7,16.6,0.6
		C310.1,327.1,302.4,321.1,303.6,313.5z"/>
	<path d="M339.7,240.7c1.2,22.5-20.7,45-45,44.4c-23.7-0.6-45-21.9-44.4-46.2c0.6-24.9,21.9-43.9,45.6-43.9
		C320.7,195.6,340.3,216.4,339.7,240.7z"/>
</g>
</svg>
